<svg width="550" height="466" viewBox="0 0 550 466" fill="none" xmlns="http://www.w3.org/2000/svg">
<g clip-path="url(#clip0_2157_1916)">
<path d="M393.474 117.236H366.296V348.945C366.296 352.581 365.579 356.18 364.188 359.539C362.797 362.898 360.758 365.95 358.187 368.52C355.617 371.091 352.565 373.13 349.206 374.521C345.847 375.913 342.247 376.629 338.612 376.629H130.824V376.893C130.824 380.529 131.54 384.129 132.931 387.487C134.323 390.846 136.362 393.898 138.933 396.469C141.503 399.039 144.555 401.078 147.914 402.47C151.272 403.861 154.872 404.577 158.508 404.577H393.474C397.109 404.577 400.709 403.861 404.068 402.47C407.426 401.078 410.478 399.039 413.049 396.469C415.619 393.898 417.659 390.846 419.05 387.487C420.441 384.129 421.157 380.529 421.157 376.893V144.92C421.157 141.284 420.441 137.684 419.05 134.326C417.659 130.967 415.619 127.915 413.049 125.345C410.478 122.774 407.426 120.735 404.068 119.344C400.709 117.952 397.109 117.236 393.474 117.236Z" fill="#F2F2F2"/>
<path d="M359.842 93.4668H92.4907C86.1445 93.4668 81 98.6113 81 104.957V369.317C81 375.663 86.1445 380.807 92.4907 380.807H359.842C366.188 380.807 371.333 375.663 371.333 369.317V104.957C371.333 98.6113 366.188 93.4668 359.842 93.4668Z" fill="#F2F2F2"/>
<path d="M108.684 99.1602C102.851 99.1602 97.2582 101.477 93.1342 105.601C89.0102 109.725 86.6934 115.318 86.6934 121.15V353.124C86.6934 358.957 89.0102 364.55 93.1342 368.674C97.2582 372.798 102.851 375.115 108.684 375.115H258.645C317.736 375.115 365.64 327.211 365.64 268.12V121.15C365.64 115.318 363.323 109.725 359.199 105.601C355.075 101.477 349.481 99.1602 343.649 99.1602H108.684Z" fill="white"/>
<path d="M377.686 254.838C376.485 255.171 375.226 255.239 373.996 255.037C372.766 254.836 371.595 254.369 370.563 253.67C369.531 252.971 368.663 252.057 368.019 250.989C367.376 249.922 366.972 248.728 366.835 247.489L325.775 235.089L326.413 222.889L375.072 237.973C377.175 237.898 379.232 238.597 380.853 239.937C382.475 241.277 383.548 243.166 383.87 245.244C384.192 247.323 383.741 249.448 382.601 251.216C381.461 252.985 379.713 254.273 377.686 254.838Z" fill="#FFB68C"/>
<path d="M349.322 318.088C348.867 318.295 348.359 318.357 347.868 318.266C347.376 318.175 346.924 317.935 346.574 317.578C346.223 317.222 345.991 316.767 345.908 316.274C345.825 315.781 345.895 315.274 346.11 314.822C346.076 314.573 346.051 314.394 346.018 314.144C345.977 314.103 345.937 314.062 345.897 314.021C341.822 309.887 334.774 312.752 334.703 318.555C334.639 323.706 334.077 329.065 335.374 333.965C335.948 336.13 336.893 338.18 338.167 340.022C330.096 332.354 323.768 323.039 319.612 312.711C318.572 310.118 317.677 307.469 316.933 304.776C316.324 302.568 315.814 300.338 315.403 298.086C313.182 285.86 313.893 273.282 317.478 261.385C320.199 258.089 321.845 254.038 322.193 249.777C322.323 248.244 322.23 246.699 321.918 245.193C321.546 245.402 318.059 239.854 318.208 239.368C317.327 238.756 316.182 238.736 315.259 238.165C310.669 235.325 306.853 237.671 306.91 244.008C303.265 248.146 304.753 251.988 309.032 254.543C311.753 256.169 313.268 259.237 315.837 261.116C315.759 261.386 315.671 261.653 315.593 261.924C314.166 266.889 313.229 271.981 312.796 277.129C311.5 272.132 308.306 266.766 305.296 263.688C301.867 260.181 297.179 257.949 292.844 255.466C287.638 252.484 281.314 257.231 282.923 263.011C282.939 263.067 282.955 263.123 282.97 263.178C283.495 263.248 284.016 263.337 284.533 263.443C285.185 263.581 285.781 263.912 286.241 264.394C286.702 264.875 287.006 265.485 287.114 266.142C287.222 266.8 287.129 267.474 286.848 268.078C286.566 268.682 286.108 269.187 285.535 269.526L285.476 269.56C286.245 271.04 287.126 272.459 288.111 273.805C290.141 289.561 300.195 291.567 311.669 287.239C311.972 287.268 312.268 287.298 312.568 287.32C312.862 294.31 314.063 301.232 316.141 307.912C317.38 311.848 318.934 315.678 320.79 319.363L320.717 319.236C318.191 315.322 314.393 312.4 309.963 310.963C303.407 308.889 295.841 310.189 289.215 309.065C286.026 308.524 283.555 311.865 285.192 314.655C285.218 314.7 285.245 314.744 285.271 314.789C286.194 314.794 287.115 314.857 288.03 314.976C288.554 315.046 289.075 315.135 289.593 315.241C290.245 315.379 290.84 315.71 291.301 316.191C291.761 316.673 292.065 317.283 292.174 317.94C292.282 318.597 292.189 319.272 291.907 319.876C291.625 320.48 291.168 320.984 290.594 321.324L290.535 321.358C290.493 321.383 290.457 321.405 290.414 321.429C293.066 324.122 296.162 326.338 299.566 327.981C306.869 339.519 317.257 336.728 326.408 328.848L326.415 328.846C329.605 333.436 333.263 337.682 337.331 341.516L355.302 334.314C355.286 334.088 355.262 333.859 355.24 333.636C353.618 334.407 351.908 334.977 350.148 335.333C350.826 333.162 351.498 330.979 352.176 328.808C352.193 328.766 352.208 328.722 352.221 328.678C352.562 327.57 352.912 326.465 353.252 325.357L353.252 325.356C352.26 322.774 350.939 320.332 349.322 318.088L349.322 318.088Z" fill="#F2F2F2"/>
<path d="M250.546 333.903L250.34 333.645C249.747 329.83 250.546 333.903 250.546 333.903Z" fill="#0C2F3D"/>
<path d="M261.071 375.06H203.499C199.026 363.941 195.921 355.988 195.921 355.988C195.921 355.988 195.167 363.778 194.091 375.06H142.042C141.555 344.4 140.873 312.92 140.648 302.922L240.553 305.147L250.49 317.749C250.524 317.96 250.558 318.192 250.601 318.454C251.003 321.015 256.412 348.499 261.071 375.06Z" fill="#0C2F3D"/>
<path fill-rule="evenodd" clip-rule="evenodd" d="M257.941 157.489C251.837 153.009 245.174 151.019 237.733 152.483C236.462 148.634 235.276 148.634 235.276 148.634L218.429 143.07L216.006 128.268L174.497 126.863L170.725 145.334C170.725 145.334 147.524 149.493 147.524 152.501C147.524 154.004 148.49 154.756 148.974 155.132C149.144 155.265 149.255 155.351 149.241 155.406C149.216 155.508 148.775 155.508 147.524 155.508C146.079 155.508 145.029 155.028 144.107 154.606C142.56 153.899 141.371 153.355 139.274 155.508C138.988 155.797 138.685 156.07 138.368 156.325C138.348 156.342 138.328 156.358 138.308 156.374C138.287 156.39 138.267 156.406 138.247 156.423C136.785 157.574 135.443 158.859 134.239 160.26C125.614 166.126 103.863 183.717 103.863 196.399C103.863 196.399 99.0211 207.144 94.0587 220.751C86.6472 241.07 78.9779 267.755 86.8233 274.475C90.9566 278.016 96.4604 277.839 102.063 275.94C109.221 273.517 116.529 268.28 121.329 264.387C121.822 263.988 122.288 263.602 122.725 263.236C127.095 261.244 131.353 258.458 134.889 255.835L142.196 328.495L246.447 332.834L253.429 268.374L257.291 210.042C263.521 213.358 270.797 216.379 278.185 219.447C287.487 223.309 296.966 227.245 304.763 231.938L320.55 238.448L336.946 245.211L361.736 248.946L354.164 243.667L354.164 243.661L357.949 232.668L357.952 232.665L358.309 231.635L323.872 216.276L313.48 211.643L289.796 190.252L265.956 163.023C263.533 160.835 260.838 158.976 257.941 157.489ZM133.346 240.484L134.438 251.346L128.174 248.525L133.346 240.484Z" fill="url(#paint0_linear_2157_1916)"/>
<path d="M89.0633 349.795C89.6585 351.293 90.2591 352.39 90.8651 352.933L293.051 353.362C293.657 352.82 294.257 351.722 294.853 350.225C301.924 332.435 288.584 313.143 269.44 313.107L114.487 312.813C95.3682 312.776 82.0012 332.029 89.0633 349.795Z" fill="white"/>
<path d="M293.216 353.792L293.051 353.791L90.7017 353.361L90.5798 353.252C89.9496 352.688 89.3234 351.609 88.6652 349.954C86.9914 345.815 86.3741 341.325 86.8688 336.888C87.3635 332.451 88.9548 328.207 91.4991 324.538C94.0394 320.794 97.458 317.728 101.456 315.609C105.454 313.49 109.91 312.383 114.435 312.383H114.489L269.442 312.677C273.983 312.686 278.453 313.806 282.462 315.94C286.47 318.074 289.895 321.157 292.438 324.92C294.979 328.599 296.567 332.852 297.058 337.296C297.549 341.741 296.929 346.238 295.253 350.384C294.595 352.039 293.969 353.118 293.339 353.682L293.216 353.792ZM104.375 352.462L275.812 351.943C287.913 351.906 296.815 340.225 293.229 328.667C292.89 327.511 292.384 326.411 291.727 325.401C289.263 321.755 285.943 318.767 282.058 316.699C278.173 314.631 273.841 313.545 269.44 313.536L114.487 313.242H114.435C112.468 313.308 110.527 313.722 108.705 314.467C98.696 318.254 92.0031 327.775 91.4465 338.462C91.4394 338.598 91.4324 338.734 91.4253 338.871C91.338 340.566 91.5853 342.262 92.1534 343.861C92.7214 345.461 93.5989 346.933 94.7359 348.194C95.8728 349.454 97.247 350.479 98.7798 351.208C100.313 351.938 101.974 352.358 103.669 352.445C103.904 352.457 104.14 352.463 104.375 352.462Z" fill="#E6E6E6"/>
<path d="M157.544 329.378C157.664 329.527 157.815 329.648 157.988 329.73C158.161 329.813 158.35 329.855 158.541 329.854H228.291C228.482 329.854 228.67 329.811 228.842 329.729C229.014 329.647 229.166 329.528 229.286 329.379C229.406 329.231 229.492 329.058 229.537 328.873C229.582 328.687 229.585 328.494 229.546 328.308L228.463 323.165C228.418 322.955 228.321 322.76 228.182 322.597C228.042 322.434 227.864 322.309 227.664 322.232C227.519 322.175 227.364 322.146 227.208 322.146H159.62C159.464 322.146 159.309 322.175 159.164 322.232C158.964 322.309 158.786 322.434 158.646 322.597C158.507 322.76 158.41 322.955 158.365 323.165L157.282 328.308C157.244 328.494 157.247 328.687 157.293 328.872C157.338 329.057 157.424 329.23 157.544 329.378Z" fill="#0C2F3D"/>
<path d="M130.84 214.249V294.706C130.841 295.731 131.248 296.714 131.973 297.439C132.698 298.164 133.681 298.572 134.707 298.573H253.935C254.96 298.572 255.944 298.164 256.669 297.439C257.394 296.714 257.801 295.731 257.802 294.706V214.249C257.8 213.225 257.391 212.243 256.666 211.519C255.942 210.795 254.96 210.388 253.935 210.387H134.707C133.682 210.388 132.7 210.795 131.975 211.519C131.251 212.243 130.842 213.225 130.84 214.249Z" fill="#0C2F3D"/>
<path d="M179.404 282.787V326.853H210.275V282.787C210.275 282.471 210.174 282.162 209.986 281.907C209.798 281.651 209.534 281.463 209.231 281.37C209.088 281.322 208.939 281.299 208.788 281.301H180.895C180.501 281.3 180.122 281.456 179.842 281.735C179.563 282.013 179.405 282.391 179.404 282.786V282.787ZM191.452 297.928C191.46 297.06 191.811 296.229 192.428 295.618C193.045 295.007 193.879 294.664 194.747 294.664C195.616 294.664 196.449 295.007 197.067 295.618C197.684 296.229 198.034 297.06 198.043 297.928V303.041C198.038 303.912 197.689 304.746 197.071 305.361C196.454 305.975 195.618 306.32 194.747 306.32C193.876 306.32 193.04 305.975 192.423 305.361C191.805 304.746 191.456 303.912 191.452 303.041V297.928Z" fill="#0C2F3D"/>
<path d="M197.421 125.214C212.258 125.214 224.286 113.186 224.286 98.3491C224.286 83.5121 212.258 71.4844 197.421 71.4844C182.584 71.4844 170.557 83.5121 170.557 98.3491C170.557 113.186 182.584 125.214 197.421 125.214Z" fill="url(#paint1_linear_2157_1916)"/>
<path d="M202.876 118.408C198.491 118.408 196.099 114.399 196.07 114.347C195.999 114.216 195.981 114.063 196.021 113.919C196.061 113.776 196.155 113.653 196.283 113.578C196.411 113.503 196.564 113.481 196.708 113.517C196.852 113.553 196.977 113.644 197.055 113.77C197.186 113.993 200.284 119.133 205.968 116.535C206.106 116.473 206.262 116.468 206.403 116.521C206.544 116.575 206.658 116.682 206.72 116.82C206.782 116.958 206.787 117.115 206.733 117.256C206.68 117.398 206.573 117.512 206.435 117.574C205.323 118.107 204.108 118.391 202.876 118.408Z" fill="#E6635D"/>
<path d="M229.587 93.6489C226.691 94.5481 223.899 95.0781 222.015 92.7023C220.132 90.3266 220.624 87.6101 217.822 86.4648C215.56 85.5373 212.948 85.9348 210.667 86.7961C210.26 86.9476 209.862 87.1179 209.474 87.2883C209.256 87.099 209.039 86.9192 208.802 86.7488C207.021 85.4824 204.823 84.9472 202.659 85.2533C204.241 86.0172 205.542 87.2589 206.379 88.8027C205.603 89.1908 204.769 89.4808 204.022 89.9101C193.763 95.8087 182.353 98.1843 183.284 88.339C186.389 96.5167 183.975 99.432 179.422 106.9L179.243 107.335C179.697 105.376 176.503 105.283 173.743 105.953C171.705 106.448 173.024 111.199 175.636 114.472C169.796 105.679 161.05 92.2537 168.613 85.5183C169.729 84.5249 170.429 83.1234 170.629 79.5364C170.748 77.4096 174.368 76.8767 176.28 77.8232C176.557 74.6253 177.674 71.5576 179.519 68.9311C181.365 66.3047 183.872 64.213 186.786 62.8684C192.636 60.2655 198.584 64.2695 204.94 65.0453C208.467 65.4758 211.141 66.8961 211.282 71.3964C211.376 74.3934 215.891 75.4664 218.844 75.9964C220.719 76.3278 222.829 76.129 224.325 77.3121C226.057 78.6845 226.076 81.0981 226.066 83.4171C224.371 83.3687 222.701 83.8268 221.268 84.7327C223.022 84.7768 224.718 85.373 226.114 86.4364C226.141 86.453 226.166 86.472 226.189 86.4932C226.7 90.3929 226.492 91.2164 229.587 93.6489Z" fill="#0C2F3D"/>
<path d="M248.962 224.64C259.459 221.378 270.697 224.906 281.252 221.895C283.68 221.231 285.975 220.153 288.036 218.709C289.794 217.376 291.445 215.907 292.973 214.315C296.148 211.175 299.596 207.877 304.367 207.913C310.648 207.961 315.472 212.628 319.659 216.748C320.25 217.33 321.163 216.419 320.57 215.836C316.723 212.05 312.566 208.056 307.089 206.926C304.633 206.381 302.069 206.594 299.735 207.537C297.711 208.457 295.862 209.721 294.271 211.274C292.584 212.82 291.029 214.504 289.319 216.026C287.535 217.65 285.479 218.947 283.246 219.86C278.407 221.787 273.099 222.019 267.953 221.963C261.493 221.892 254.878 221.453 248.619 223.397C247.83 223.643 248.167 224.888 248.962 224.64Z" fill="#342C44"/>
<path d="M321.961 208.061L325.188 213.749L326.75 216.501C327.027 216.991 327.312 217.476 327.583 217.969C327.748 218.272 328.111 218.819 327.765 219.106C327.461 219.255 327.119 219.308 326.784 219.259C326.215 219.26 325.646 219.247 325.077 219.242L321.877 219.209L315.263 219.142C315.096 219.148 314.938 219.219 314.822 219.339C314.706 219.459 314.641 219.62 314.641 219.787C314.641 219.954 314.706 220.115 314.822 220.235C314.938 220.355 315.096 220.425 315.263 220.431C319.103 220.47 322.944 220.551 326.784 220.548C327.454 220.612 328.124 220.429 328.668 220.032C328.935 219.767 329.111 219.425 329.172 219.054C329.233 218.684 329.177 218.303 329.01 217.966C328.631 217.14 328.196 216.341 327.707 215.576L326.301 213.098L323.074 207.41C322.985 207.269 322.844 207.167 322.682 207.128C322.52 207.088 322.348 207.113 322.204 207.198C322.059 207.282 321.953 207.419 321.908 207.58C321.863 207.741 321.882 207.913 321.961 208.061Z" fill="#342C44"/>
<path d="M354.376 210.33C360.901 201.483 372.045 197.669 378.765 188.991C380.328 187.018 381.538 184.79 382.344 182.406C382.971 180.29 383.43 178.128 383.719 175.941C384.417 171.53 385.242 166.831 389.107 164.034C394.196 160.352 400.846 161.255 406.66 162.094C406.826 162.114 406.994 162.068 407.127 161.967C407.26 161.865 407.348 161.716 407.373 161.551C407.399 161.386 407.359 161.217 407.262 161.081C407.165 160.944 407.019 160.851 406.855 160.82C401.512 160.048 395.797 159.293 390.715 161.626C388.413 162.642 386.474 164.333 385.152 166.474C384.066 168.414 383.325 170.528 382.963 172.722C382.52 174.967 382.264 177.245 381.789 179.484C381.313 181.849 380.425 184.112 379.166 186.17C376.409 190.589 372.27 193.92 368.091 196.923C362.844 200.693 357.254 204.257 353.364 209.531C352.873 210.197 353.882 211 354.376 210.33Z" fill="#342C44"/>
<path d="M403.369 153.73L409.339 156.402L412.227 157.694C412.74 157.924 413.258 158.146 413.768 158.384C414.081 158.53 414.696 158.755 414.588 159.192C414.513 159.489 414.115 159.728 413.888 159.896C413.43 160.234 412.964 160.561 412.503 160.893L409.905 162.762L404.537 166.626C404.406 166.73 404.32 166.88 404.297 167.046C404.275 167.211 404.318 167.379 404.417 167.514C404.516 167.649 404.663 167.74 404.828 167.768C404.993 167.796 405.162 167.759 405.3 167.665C408.417 165.422 411.56 163.211 414.651 160.934C415.229 160.589 415.661 160.044 415.864 159.403C415.922 159.032 415.861 158.652 415.691 158.316C415.521 157.981 415.25 157.708 414.916 157.536C414.121 157.094 413.297 156.709 412.45 156.382L409.85 155.218L403.881 152.547C403.725 152.485 403.552 152.487 403.397 152.551C403.243 152.616 403.119 152.738 403.053 152.891C402.987 153.045 402.982 153.218 403.041 153.374C403.1 153.531 403.218 153.658 403.369 153.73Z" fill="#342C44"/>
<path d="M462.988 160.56H433.329C433.166 160.56 433.005 160.529 432.855 160.467C432.705 160.406 432.568 160.315 432.453 160.201C432.338 160.086 432.246 159.95 432.184 159.8C432.121 159.651 432.088 159.49 432.088 159.327C432.087 159.165 432.119 159.004 432.181 158.854C432.242 158.704 432.333 158.567 432.448 158.452C432.562 158.337 432.698 158.245 432.848 158.183C432.998 158.121 433.159 158.088 433.321 158.088C433.324 158.088 433.326 158.088 433.329 158.088H462.988C463.15 158.087 463.311 158.119 463.462 158.18C463.612 158.242 463.749 158.332 463.864 158.447C463.979 158.561 464.071 158.697 464.133 158.847C464.196 158.997 464.228 159.158 464.229 159.32C464.229 159.482 464.198 159.643 464.136 159.794C464.074 159.944 463.984 160.08 463.869 160.195C463.755 160.311 463.618 160.402 463.469 160.464C463.319 160.527 463.158 160.559 462.995 160.56C462.993 160.56 462.991 160.56 462.988 160.56Z" fill="#7C3AED"/>
<path d="M377.147 249.346C383.673 258.192 394.816 262.007 401.537 270.685C403.099 272.658 404.31 274.885 405.115 277.27C405.742 279.386 406.202 281.547 406.491 283.735C407.189 288.146 408.013 292.845 411.878 295.641C416.968 299.323 423.618 298.421 429.432 297.582C429.598 297.562 429.765 297.607 429.898 297.709C430.031 297.81 430.12 297.959 430.145 298.125C430.17 298.29 430.13 298.459 430.033 298.595C429.937 298.732 429.791 298.825 429.626 298.856C424.284 299.627 418.569 300.383 413.487 298.05C411.185 297.033 409.245 295.343 407.924 293.201C406.838 291.261 406.097 289.147 405.734 286.954C405.292 284.709 405.036 282.43 404.56 280.192C404.084 277.826 403.196 275.563 401.938 273.505C399.18 269.087 395.042 265.756 390.862 262.752C385.615 258.982 380.026 255.419 376.135 250.145C375.644 249.479 376.653 248.676 377.147 249.346Z" fill="#342C44"/>
<path d="M426.142 305.943L432.112 303.272L435 301.979C435.514 301.749 436.031 301.527 436.541 301.289C436.854 301.144 437.47 300.918 437.361 300.482C437.287 300.185 436.889 299.945 436.661 299.777C436.204 299.44 435.738 299.113 435.276 298.78L432.678 296.911L427.31 293.047C427.179 292.944 427.093 292.793 427.071 292.628C427.048 292.462 427.091 292.294 427.19 292.159C427.289 292.025 427.437 291.934 427.601 291.906C427.766 291.878 427.935 291.915 428.073 292.009C431.19 294.252 434.333 296.462 437.425 298.739C438.002 299.084 438.434 299.629 438.637 300.27C438.695 300.642 438.634 301.022 438.464 301.357C438.294 301.692 438.023 301.965 437.689 302.138C436.895 302.579 436.071 302.965 435.223 303.292L432.623 304.455L426.654 307.127C426.498 307.188 426.325 307.186 426.17 307.122C426.016 307.057 425.893 306.936 425.826 306.782C425.76 306.629 425.756 306.455 425.815 306.299C425.874 306.142 425.991 306.015 426.142 305.943Z" fill="#342C44"/>
<path d="M474.899 303.972H445.24C444.913 303.973 444.598 303.844 444.365 303.613C444.133 303.382 444.001 303.069 444 302.741C443.999 302.414 444.127 302.099 444.358 301.866C444.588 301.634 444.902 301.502 445.229 301.5C445.233 301.5 445.236 301.5 445.24 301.5H474.899C475.227 301.499 475.541 301.628 475.774 301.859C476.006 302.089 476.138 302.403 476.139 302.73C476.141 303.058 476.012 303.373 475.782 303.605C475.551 303.838 475.238 303.97 474.91 303.972C474.907 303.972 474.903 303.972 474.899 303.972Z" fill="#7C3AED"/>
<path d="M141.652 254.738C141.091 255.851 140.294 256.828 139.318 257.603C138.341 258.377 137.208 258.93 135.997 259.224C134.786 259.517 133.525 259.544 132.302 259.303C131.08 259.061 129.924 258.557 128.915 257.825L98.0253 272.525L95.9551 263.867L127.413 245.329C128.772 243.723 130.672 242.671 132.755 242.372C134.837 242.074 136.957 242.549 138.712 243.709C140.467 244.869 141.736 246.632 142.278 248.665C142.819 250.698 142.597 252.858 141.652 254.738Z" fill="#FFB68C"/>
<path d="M310.174 196.611C306.643 183.758 307.232 171.099 313.278 158.696C313.342 157.929 313.754 157.215 314.424 156.711C315.095 156.207 315.969 155.953 316.854 156.007L349.889 158.039C350.775 158.094 351.599 158.452 352.18 159.033C352.762 159.614 353.054 160.371 352.992 161.139L349.888 199.054C349.824 199.821 349.412 200.535 348.741 201.039C348.071 201.543 347.197 201.797 346.312 201.743L313.276 199.711C312.391 199.656 311.567 199.298 310.986 198.717C310.404 198.136 310.112 197.379 310.174 196.611Z" fill="#F2F2F2"/>
<path d="M313.196 185.367C310.301 178.982 312.152 170.201 315.241 160.795C315.302 160.071 315.698 159.397 316.341 158.921C316.985 158.445 317.823 158.206 318.673 158.257L347.765 160.017C348.614 160.069 349.405 160.407 349.963 160.955C350.521 161.504 350.801 162.219 350.742 162.943L347.912 196.955C347.851 197.679 347.455 198.353 346.812 198.829C346.168 199.305 345.33 199.544 344.48 199.493L326.458 198.403C322.674 198.17 319.152 196.667 316.666 194.223C314.18 191.78 312.932 188.595 313.196 185.367Z" fill="white"/>
<path d="M315.768 183.841L319.387 181.978C319.976 183.212 320.517 184.26 321.979 184.36C323.381 184.457 324.303 183.969 324.45 181.836L325.448 167.329L329.714 167.622L328.712 182.19C328.408 186.609 325.679 188.442 321.9 188.182C318.487 187.948 316.627 186.044 315.768 183.841M330.887 184.422L334.499 182.65C335.311 184.206 336.425 185.385 338.527 185.529C340.295 185.651 341.483 184.845 341.567 183.625C341.668 182.163 340.545 181.565 338.653 180.578L337.618 180.047C334.63 178.525 332.702 176.739 332.941 173.264C333.161 170.064 335.766 167.793 339.576 168.055C342.289 168.242 344.174 169.321 345.406 171.886L341.937 173.791C341.296 172.43 340.539 171.858 339.32 171.774C338.071 171.688 337.224 172.426 337.152 173.462C337.064 174.742 337.821 175.315 339.595 176.233L340.63 176.764C344.15 178.567 346.083 180.293 345.838 183.858C345.574 187.699 342.412 189.594 338.359 189.315C334.397 189.042 331.967 186.977 330.887 184.422" fill="#FFD350"/>
<path d="M426.174 149.611C422.643 136.758 423.232 124.099 429.278 111.696C429.342 110.929 429.754 110.215 430.424 109.711C431.095 109.207 431.969 108.953 432.854 109.007L465.889 111.039C466.775 111.094 467.599 111.452 468.18 112.033C468.762 112.614 469.054 113.371 468.992 114.139L465.888 152.054C465.824 152.821 465.412 153.535 464.741 154.039C464.071 154.543 463.197 154.797 462.312 154.743L429.276 152.711C428.391 152.656 427.567 152.298 426.986 151.717C426.404 151.136 426.112 150.379 426.174 149.611Z" fill="#F2F2F2"/>
<path d="M429.196 138.367C426.301 131.982 428.152 123.201 431.241 113.795C431.302 113.071 431.698 112.397 432.341 111.921C432.985 111.445 433.823 111.206 434.673 111.257L463.765 113.017C464.614 113.069 465.405 113.407 465.963 113.955C466.521 114.504 466.801 115.219 466.742 115.943L463.912 149.955C463.851 150.679 463.455 151.353 462.812 151.829C462.168 152.305 461.33 152.544 460.48 152.493L442.458 151.403C438.674 151.17 435.152 149.667 432.666 147.223C430.18 144.78 428.932 141.595 429.196 138.367Z" fill="white"/>
<path d="M457.259 127.433C456.949 127.299 456.636 127.172 456.32 127.053C456.392 126.836 456.46 126.62 456.521 126.409C457.531 122.929 457.281 120.041 455.728 118.974C454.24 117.95 451.614 118.686 448.859 120.723C448.587 120.925 448.321 121.133 448.06 121.347C447.91 121.179 447.757 121.013 447.601 120.85C445.091 118.238 442.464 117.012 440.764 117.824C439.133 118.603 438.459 121.245 438.849 124.65C438.887 124.987 438.935 125.323 438.991 125.658C438.599 125.736 438.22 125.823 437.856 125.918C434.602 126.77 432.443 128.34 432.3 130.134C432.153 131.987 434.176 134.019 437.384 135.408C437.645 135.52 437.907 135.626 438.173 135.725C438.057 136.072 437.95 136.422 437.853 136.774C436.966 140.019 437.247 142.673 438.73 143.693C440.262 144.747 443.032 144.009 445.838 141.924C446.066 141.754 446.289 141.579 446.508 141.398C446.751 141.673 447.001 141.94 447.258 142.2C449.626 144.589 452.066 145.672 453.69 144.896C455.368 144.095 456.113 141.327 455.708 137.854C455.676 137.582 455.637 137.311 455.592 137.041C455.786 137 455.976 136.957 456.162 136.911C459.68 136.048 462.057 134.388 462.206 132.51C462.349 130.709 460.4 128.802 457.259 127.433ZM455.856 135.666C455.688 135.708 455.517 135.746 455.341 135.784C455.058 134.555 454.649 133.241 454.128 131.875C454.827 130.637 455.418 129.418 455.88 128.257C456.179 128.37 456.469 128.487 456.747 128.608C459.439 129.781 461.015 131.323 460.929 132.409C460.837 133.565 458.894 134.921 455.856 135.666ZM454.435 138.003C454.614 139.538 454.548 140.908 454.265 141.961C454.01 142.907 453.601 143.519 453.138 143.74C452.152 144.211 450.193 143.341 448.168 141.298C447.929 141.056 447.696 140.808 447.471 140.553C448.387 139.698 449.314 138.694 450.23 137.569C451.686 137.556 453.069 137.454 454.33 137.266C454.371 137.511 454.406 137.756 454.435 138.003ZM441.56 142.725C440.613 142.977 439.879 142.928 439.456 142.637C438.556 142.018 438.331 139.887 439.089 137.112C439.18 136.784 439.279 136.459 439.387 136.137C440.59 136.505 441.931 136.808 443.37 137.04C444.105 138.27 444.887 139.409 445.686 140.416C445.486 140.581 445.282 140.741 445.074 140.895C443.833 141.817 442.613 142.445 441.56 142.725ZM437.894 134.232C436.475 133.618 435.322 132.874 434.553 132.102C433.862 131.408 433.537 130.747 433.578 130.236C433.665 129.147 435.398 127.887 438.181 127.158C438.519 127.069 438.871 126.989 439.236 126.916C439.514 128.163 439.904 129.474 440.394 130.808C439.69 132.067 439.089 133.32 438.613 134.522C438.371 134.431 438.131 134.335 437.894 134.232ZM440.122 124.504C439.788 121.587 440.333 119.45 441.316 118.981C442.362 118.481 444.509 119.483 446.676 121.738C446.818 121.886 446.956 122.036 447.092 122.188C446.149 123.052 445.206 124.046 444.294 125.138C442.877 125.157 441.514 125.259 440.254 125.442C440.202 125.13 440.158 124.817 440.122 124.504ZM452.769 128.714C452.517 128.186 452.253 127.663 451.978 127.146C452.923 127.343 453.824 127.576 454.667 127.84C454.344 128.645 453.954 129.483 453.505 130.339C453.271 129.792 453.025 129.251 452.769 128.714ZM447.915 123.172C448.454 123.858 448.987 124.617 449.506 125.437C448.333 125.287 447.154 125.194 445.972 125.155C446.614 124.435 447.266 123.771 447.915 123.172ZM442.213 127.884C441.879 128.37 441.557 128.863 441.246 129.364C440.944 128.452 440.695 127.559 440.501 126.7C441.37 126.577 442.292 126.493 443.25 126.45C442.893 126.92 442.547 127.398 442.213 127.884ZM442.551 135.594C441.58 135.406 440.668 135.185 439.83 134.932C440.161 134.1 440.557 133.24 441.009 132.368C441.238 132.912 441.479 133.451 441.734 133.983C441.995 134.531 442.268 135.068 442.551 135.594ZM446.648 139.567C446.094 138.866 445.548 138.095 445.02 137.271C445.591 137.339 446.174 137.396 446.767 137.444C447.376 137.492 447.98 137.526 448.575 137.547C447.93 138.292 447.285 138.969 446.648 139.567ZM453.283 133.297C453.61 134.24 453.877 135.149 454.078 136.008C453.195 136.137 452.246 136.222 451.25 136.262C451.606 135.786 451.953 135.303 452.289 134.813C452.632 134.315 452.963 133.81 453.283 133.297ZM451.233 134.087C450.718 134.838 450.178 135.572 449.615 136.288C448.698 136.28 447.782 136.239 446.868 136.166C445.938 136.092 445.035 135.991 444.168 135.866C443.711 135.07 443.285 134.258 442.89 133.431C442.497 132.608 442.135 131.77 441.806 130.92C442.264 130.132 442.753 129.362 443.269 128.61L443.269 128.61C443.786 127.859 444.331 127.127 444.903 126.417C445.797 126.421 446.712 126.458 447.634 126.531C448.56 126.605 449.47 126.713 450.354 126.851C450.802 127.641 451.221 128.447 451.612 129.266C452.005 130.088 452.372 130.923 452.711 131.768C452.246 132.558 451.753 133.332 451.233 134.087ZM455.002 120.03C455.958 120.687 456.162 123.047 455.29 126.051C455.235 126.243 455.174 126.438 455.109 126.635C453.891 126.25 452.56 125.93 451.16 125.686C450.432 124.45 449.665 123.319 448.883 122.33C449.124 122.132 449.37 121.939 449.621 121.754C451.981 120.008 454.105 119.413 455.002 120.03ZM447.465 128.652C448.94 128.769 450.041 130.06 449.924 131.534C449.807 133.009 448.516 134.11 447.041 133.993C445.566 133.875 444.466 132.585 444.583 131.11C444.7 129.635 445.991 128.534 447.465 128.652Z" fill="#00D8FF"/>
<path d="M436.174 290.611C432.643 277.758 433.232 265.099 439.278 252.696C439.342 251.929 439.754 251.215 440.424 250.711C441.095 250.207 441.969 249.953 442.854 250.007L475.889 252.039C476.775 252.094 477.599 252.452 478.18 253.033C478.762 253.614 479.054 254.371 478.992 255.139L475.888 293.054C475.824 293.821 475.412 294.535 474.741 295.039C474.071 295.543 473.197 295.797 472.312 295.743L439.276 293.711C438.391 293.656 437.567 293.298 436.986 292.717C436.404 292.136 436.112 291.379 436.174 290.611Z" fill="#F2F2F2"/>
<path d="M439.196 279.367C436.301 272.982 438.152 264.201 441.241 254.795C441.302 254.071 441.698 253.397 442.341 252.921C442.985 252.445 443.823 252.206 444.673 252.257L473.765 254.017C474.614 254.069 475.405 254.407 475.963 254.955C476.521 255.504 476.801 256.219 476.742 256.943L473.912 290.955C473.851 291.679 473.455 292.353 472.812 292.829C472.168 293.305 471.33 293.544 470.48 293.493L452.458 292.403C448.674 292.17 445.152 290.667 442.666 288.223C440.18 285.78 438.932 282.595 439.196 279.367Z" fill="white"/>
<g clip-path="url(#clip1_2157_1916)">
<rect x="442.852" y="256.262" width="30" height="30" rx="15" transform="rotate(4.95535 442.852 256.262)" fill="black"/>
<path d="M456.79 247.17C456.682 247.17 456.338 247.175 456.029 247.172C448.899 247.197 441.941 250.439 437.234 255.942C434.615 259.001 432.799 262.572 431.894 266.442C431.576 267.793 431.517 268.195 431.356 270.05C431.195 271.905 431.184 272.311 431.265 273.697C431.808 283.167 437.783 291.602 446.558 295.296C448.13 295.957 449.803 296.46 451.723 296.842C452.47 296.991 455.733 297.273 456.495 297.256C459.872 297.176 462.778 296.594 465.696 295.41C466.144 295.228 466.232 295.177 466.177 295.123C466.141 295.09 464.527 292.483 462.593 289.333L459.076 283.608L454.725 275.79C452.331 271.491 450.36 267.975 450.34 267.973C450.321 267.967 450.017 271.246 449.66 275.252C449.037 282.267 449.008 282.549 448.906 282.706C448.759 282.934 448.653 283.023 448.439 283.113C448.276 283.177 448.139 283.18 447.403 283.116L446.561 283.043L446.349 282.882C446.218 282.783 446.116 282.651 446.054 282.499L445.97 282.271L446.827 272.51L447.688 262.745L447.855 262.568C447.942 262.473 448.119 262.355 448.242 262.302C448.45 262.222 448.528 262.219 449.371 262.292C450.364 262.378 450.526 262.432 450.76 262.736C450.826 262.821 453.176 267.125 455.984 272.308C458.827 277.554 461.672 282.799 464.52 288.043L467.946 294.359L468.157 294.245C470.024 293.249 472.036 291.776 473.664 290.2C477.128 286.856 479.541 282.621 480.63 277.977C480.949 276.626 481.008 276.224 481.169 274.369C481.33 272.514 481.34 272.108 481.259 270.722C480.717 261.253 474.741 252.818 465.966 249.123C464.419 248.469 462.755 247.967 460.875 247.588C460.411 247.499 457.197 247.166 456.79 247.17L456.79 247.17ZM465.68 263.117C465.903 263.255 466.074 263.495 466.122 263.734C466.15 263.864 465.925 266.572 465.386 272.672L464.613 281.424L463.274 278.924L461.931 276.424L462.483 270.061C462.839 265.947 463.059 263.636 463.098 263.526C463.2 263.26 463.389 263.061 463.634 262.955C463.842 262.87 463.916 262.866 464.68 262.932C465.401 262.995 465.527 263.016 465.68 263.117Z" fill="white"/>
</g>
<path d="M197.915 261.241C197.107 262.024 196.225 261.901 195.376 261.53C194.478 261.151 193.654 261.134 192.706 261.53C191.519 262.041 190.893 261.892 190.184 261.241C186.162 257.096 186.756 250.783 191.322 250.552C192.434 250.61 193.209 251.162 193.86 251.211C194.833 251.014 195.764 250.445 196.802 250.519C198.047 250.618 198.986 251.113 199.604 252.003C197.033 253.544 197.643 256.931 200 257.879C199.53 259.115 198.92 260.343 197.907 261.25L197.915 261.241ZM193.778 250.503C193.654 248.665 195.146 247.148 196.86 247C197.099 249.126 194.931 250.709 193.778 250.503Z" fill="#F2F2F2"/>
</g>
<defs>
<linearGradient id="paint0_linear_2157_1916" x1="188.5" y1="194.5" x2="233.25" y2="260" gradientUnits="userSpaceOnUse">
<stop stop-color="#7C3AED"/>
<stop offset="1" stop-color="#A27CF8"/>
</linearGradient>
<linearGradient id="paint1_linear_2157_1916" x1="186.265" y1="79.8307" x2="197.421" y2="125.214" gradientUnits="userSpaceOnUse">
<stop stop-color="#FF956A"/>
<stop offset="1" stop-color="#FFCBA3"/>
</linearGradient>
<clipPath id="clip0_2157_1916">
<rect width="400" height="342.577" fill="white" transform="translate(81 62)"/>
</clipPath>
<clipPath id="clip1_2157_1916">
<rect x="442.852" y="256.262" width="30" height="30" rx="15" transform="rotate(4.95535 442.852 256.262)" fill="white"/>
</clipPath>
</defs>
</svg>
